# Blender 4.0.1
# www.blender.org
mtllib cuboT.mtl
o Cube
v 1.000000 1.000000 -1.000000
v 1.000000 -1.000000 -1.000000
v 1.000000 1.000000 1.000000
v 1.000000 -1.000000 1.000000
v -1.000000 1.000000 -1.000000
v -1.000000 -1.000000 -1.000000
v -1.000000 1.000000 1.000000
v -1.000000 -1.000000 1.000000
vn -0.0000 1.0000 -0.0000
vn -0.0000 -0.0000 1.0000
vn -1.0000 -0.0000 -0.0000
vn -0.0000 -1.0000 -0.0000
vn 1.0000 -0.0000 -0.0000
vn -0.0000 -0.0000 -1.0000
vt 0.994141 0.003906
vt 0.003906 1.000000
vt 0.003906 0.003906
vt 0.994141 0.001953
vt 0.001953 1.000000
vt 0.001953 0.001953
vt 0.998047 0.000000
vt 0.003906 0.996094
vt 0.003906 0.000000
vt 0.996094 0.003906
vt 0.005859 0.996094
vt 0.005859 0.003906
vt 0.001953 0.998047
vt 0.001953 0.003906
vt 0.994141 1.000000
vt 0.998047 0.996094
vt 0.996094 0.996094
vt 0.994141 0.998047
s 0
usemtl Material.001
f 5/1/1 3/2/1 1/3/1
f 3/4/2 8/5/2 4/6/2
f 7/7/3 6/8/3 8/9/3
f 2/10/4 8/8/4 6/3/4
f 1/10/5 4/11/5 2/12/5
f 5/1/6 2/13/6 6/14/6
f 5/1/1 7/15/1 3/2/1
f 3/4/2 7/15/2 8/5/2
f 7/7/3 5/16/3 6/8/3
f 2/10/4 4/17/4 8/8/4
f 1/10/5 3/17/5 4/11/5
f 5/1/6 1/18/6 2/13/6
